<?xml version="1.0" encoding="iso-8859-1"?>
<!-- Uploaded to: SVG Repo, www.svgrepo.com, Generator: SVG Repo Mixer Tools -->
<svg version="1.1" id="Capa_1" xmlns="http://www.w3.org/2000/svg" xmlns:xlink="http://www.w3.org/1999/xlink" 
	 viewBox="0 0 26.013 26.013" xml:space="preserve">
<g>
	
		<path style="fill:#030104;stroke:#030104;stroke-width:2.0257;stroke-linecap:round;stroke-linejoin:round;stroke-miterlimit:10;" d="
		M24.227,22c0,0-3.078,2-11.285,2S1.658,22,1.658,22l-0.225,1c0,0,3.302,2,11.509,2s11.638-2,11.638-2L24.227,22z"/>
	<g>
		<path style="fill:#030104;" d="M19.944,3.003c0-0.001,0-0.002,0-0.003c0,0-1.438-3-7-3s-7,3-7,3H5.943L1.944,19.75
			c0,0,3,1.999,11,1.999s11-1.999,11-1.999L19.944,3.003z M10.437,0.964c0.782,0,1.417,0.378,1.415,0.848
			c-0.002,0.475-0.651,0.861-1.449,0.861c-0.797,0-1.43-0.387-1.414-0.861C9.005,1.342,9.653,0.964,10.437,0.964z M6.608,12.962
			c-0.177,0.906-0.803,1.579-1.394,1.49c-0.595-0.087-0.91-0.9-0.721-1.802c0.192-0.887,0.805-1.529,1.38-1.446
			C6.448,11.289,6.778,12.07,6.608,12.962z M7.416,8.778c-0.161,0.841-0.762,1.466-1.329,1.385C5.516,10.082,5.2,9.33,5.377,8.494
			C5.554,7.67,6.145,7.075,6.696,7.152C7.251,7.229,7.574,7.951,7.416,8.778z M8.167,4.896C8.014,5.679,7.445,6.257,6.893,6.184
			C6.344,6.109,6.034,5.412,6.202,4.635c0.159-0.764,0.726-1.322,1.26-1.251C8.002,3.453,8.314,4.127,8.167,4.896z M10.011,15.211
			c-0.892-0.05-1.547-0.85-1.461-1.771c0.082-0.905,0.852-1.589,1.719-1.542c0.866,0.048,1.527,0.813,1.47,1.722
			C11.679,14.543,10.907,15.263,10.011,15.211z M10.353,10.835c-0.858-0.047-1.49-0.786-1.413-1.639
			c0.076-0.838,0.814-1.473,1.651-1.427c0.833,0.044,1.47,0.754,1.415,1.594C11.956,10.219,11.213,10.884,10.353,10.835z
			 M10.668,6.784C9.837,6.74,9.228,6.056,9.301,5.265c0.072-0.779,0.781-1.367,1.588-1.326c0.804,0.042,1.416,0.699,1.366,1.481
			C12.206,6.212,11.495,6.829,10.668,6.784z M15.267,0.964c0.783,0,1.432,0.378,1.447,0.848c0.018,0.475-0.619,0.861-1.416,0.861
			c-0.797,0-1.445-0.387-1.447-0.861C13.848,1.342,14.483,0.964,15.267,0.964z M14.965,3.933c0.806-0.035,1.508,0.56,1.573,1.34
			c0.063,0.791-0.557,1.47-1.384,1.507c-0.829,0.036-1.533-0.586-1.575-1.379C13.538,4.619,14.157,3.967,14.965,3.933z
			 M15.221,7.764c0.835-0.037,1.566,0.604,1.637,1.444c0.068,0.854-0.572,1.585-1.432,1.625c-0.862,0.039-1.596-0.632-1.641-1.487
			C13.741,8.504,14.383,7.802,15.221,7.764z M15.72,15.21c-0.896,0.042-1.662-0.683-1.71-1.608
			c-0.047-0.909,0.619-1.667,1.486-1.707c0.869-0.04,1.633,0.652,1.707,1.559C17.277,14.375,16.615,15.167,15.72,15.21z
			 M17.736,4.905c-0.157-0.768,0.151-1.444,0.689-1.52c0.533-0.076,1.104,0.477,1.274,1.239c0.173,0.775-0.127,1.476-0.677,1.556
			C18.469,6.259,17.896,5.686,17.736,4.905z M18.524,8.78c-0.165-0.826,0.151-1.552,0.702-1.634
			c0.554-0.083,1.149,0.507,1.334,1.328c0.188,0.834-0.12,1.589-0.689,1.677C19.3,10.238,18.696,9.619,18.524,8.78z M20.785,14.432
			c-0.592,0.094-1.221-0.572-1.41-1.477c-0.178-0.89,0.143-1.675,0.718-1.765c0.577-0.088,1.193,0.547,1.393,1.432
			C21.688,13.522,21.376,14.338,20.785,14.432z"/>
	</g>
</g>
</svg>